<?xml version="1.0" encoding="UTF-8"?>
<svg version="1.1" xmlns="http://www.w3.org/2000/svg" width="256" height="256">
<path d="M0 0 C2.74106371 2.35479125 5.35168352 4.81980354 7.92041016 7.36035156 C10.03261017 9.63588778 10.03261017 9.63588778 12.24853516 10.61816406 C12.84666016 9.79316406 13.44478516 8.96816406 14.06103516 8.11816406 C23.52435102 -3.15784328 37.97067562 -9.29830214 52.24853516 -11.38183594 C70.83146462 -12.81279991 86.8299653 -8.0654358 101.24853516 3.61816406 C103.08056641 5.20019531 103.08056641 5.20019531 104.24853516 6.61816406 C103.82748252 11.03921669 103.82748252 11.03921669 102.24853516 12.61816406 C99.00318402 13.04147073 97.56694114 12.82087751 94.77587891 11.04394531 C93.92123047 10.3465625 93.06658203 9.64917969 92.18603516 8.93066406 C80.5373598 0.14361256 67.09256925 -3.67847032 52.49853516 -1.75683594 C39.2861323 0.82749714 29.23737605 6.14037624 19.99853516 16.05566406 C17.38849356 18.75625812 16.29642086 19.60165175 12.62353516 20.86816406 C8.31390682 20.54893233 6.53372015 19.4034296 3.24853516 16.61816406 C2.52666016 15.69003906 1.80478516 14.76191406 1.06103516 13.80566406 C-6.21348706 4.59593241 -18.88692966 0.06588057 -30.06396484 -1.75683594 C-44.85887387 -3.42554672 -58.43032791 0.3374449 -70.18115234 9.42675781 C-81.85886206 19.38298144 -88.66374283 32.42661316 -90.03271484 47.77050781 C-90.61529368 67.7966553 -82.05219569 89.04302871 -69.98193359 104.95019531 C-68.75146484 106.61816406 -68.75146484 106.61816406 -68.75146484 108.61816406 C-67.12349976 108.61030884 -67.12349976 108.61030884 -65.46264648 108.60229492 C-61.45028503 108.5842457 -57.43792718 108.57273235 -53.42553711 108.56323242 C-51.68627317 108.55819202 -49.94701348 108.55135976 -48.20776367 108.54272461 C-45.71320548 108.53064614 -43.21870311 108.52493298 -40.72412109 108.52050781 C-39.94182632 108.51534653 -39.15953156 108.51018524 -38.35353088 108.50486755 C-36.4857937 108.5046718 -34.6181728 108.55616712 -32.75146484 108.61816406 C-31.75146484 109.61816406 -31.75146484 109.61816406 -31.56396484 112.05566406 C-31.75146484 114.61816406 -31.75146484 114.61816406 -33.75146484 116.61816406 C-36.11795044 116.8586731 -36.11795044 116.8586731 -39.11914062 116.84521484 C-40.8006572 116.84498825 -40.8006572 116.84498825 -42.5161438 116.84475708 C-43.73075287 116.83443451 -44.94536194 116.82411194 -46.19677734 116.81347656 C-47.43692596 116.81064667 -48.67707458 116.80781677 -49.95480347 116.80490112 C-53.25271117 116.79558581 -56.55042457 116.77761296 -59.8482666 116.75549316 C-63.21311054 116.7350388 -66.57798291 116.7259003 -69.94287109 116.71582031 C-76.5458219 116.69372922 -83.14860558 116.65918345 -89.75146484 116.61816406 C-89.75146484 121.56816406 -89.75146484 126.51816406 -89.75146484 131.61816406 C-62.69146484 131.61816406 -35.63146484 131.61816406 -7.75146484 131.61816406 C-7.75146484 126.66816406 -7.75146484 121.71816406 -7.75146484 116.61816406 C-9.85521484 116.65941406 -11.95896484 116.70066406 -14.12646484 116.74316406 C-17.71240234 116.81347656 -17.71240234 116.81347656 -20.75146484 116.61816406 C-22.75146484 114.61816406 -22.75146484 114.61816406 -22.93896484 112.05566406 C-22.75146484 109.61816406 -22.75146484 109.61816406 -21.75146484 108.61816406 C-19.3983293 108.54544665 -17.04312816 108.53445538 -14.68896484 108.55566406 C-12.7534375 108.56919922 -12.7534375 108.56919922 -10.77880859 108.58300781 C-9.77978516 108.59460938 -8.78076172 108.60621094 -7.75146484 108.61816406 C-7.80367187 106.86439453 -7.80367187 106.86439453 -7.85693359 105.07519531 C-7.88508201 103.52703265 -7.91238104 101.97885438 -7.93896484 100.43066406 C-7.96410156 99.66173828 -7.98923828 98.8928125 -8.01513672 98.10058594 C-8.07527249 93.43004132 -7.80570687 90.39858951 -4.75146484 86.61816406 C-1.00883197 84.12307548 1.15722207 84.28703747 5.62353516 84.24316406 C6.93064453 84.21480469 8.23775391 84.18644531 9.58447266 84.15722656 C13.79446259 84.6868415 15.40819376 85.50123511 18.24853516 88.61816406 C19.06103516 91.36816406 19.06103516 91.36816406 19.24853516 93.61816406 C20.06837891 93.59496094 20.88822266 93.57175781 21.73291016 93.54785156 C22.81056641 93.52980469 23.88822266 93.51175781 24.99853516 93.49316406 C26.06587891 93.46996094 27.13322266 93.44675781 28.23291016 93.42285156 C31.24587283 93.61799163 32.81221242 93.87323021 35.24853516 95.61816406 C37.12105289 98.65625738 37.50069235 100.96608726 37.50732422 104.50683594 C37.51362854 105.47463989 37.51993286 106.44244385 37.52642822 107.4395752 C37.52035553 108.99750793 37.52035553 108.99750793 37.51416016 110.58691406 C37.51607361 111.65937378 37.51798706 112.7318335 37.5199585 113.83679199 C37.52131873 116.10294835 37.51763356 118.36911254 37.50927734 120.63525391 C37.49857577 124.10499567 37.50917832 127.57421966 37.52197266 131.04394531 C37.52065103 133.24576937 37.51808858 135.44759311 37.51416016 137.64941406 C37.51820862 138.68803589 37.52225708 139.72665771 37.52642822 140.79675293 C37.51697174 142.24845886 37.51697174 142.24845886 37.50732422 143.72949219 C37.50573303 144.57902466 37.50414185 145.42855713 37.50250244 146.30383301 C37.22357377 148.84563006 36.58487193 150.45000525 35.24853516 152.61816406 C31.96164071 154.97229117 28.94969291 154.8290588 24.99853516 154.74316406 C23.92087891 154.72511719 22.84322266 154.70707031 21.73291016 154.68847656 C20.91306641 154.66527344 20.09322266 154.64207031 19.24853516 154.61816406 C19.18666016 155.36066406 19.12478516 156.10316406 19.06103516 156.86816406 C17.95705961 160.60469668 16.58301267 161.64616123 13.24853516 163.61816406 C9.65478516 164.14941406 9.65478516 164.14941406 5.74853516 164.11816406 C4.45947266 164.12847656 3.17041016 164.13878906 1.84228516 164.14941406 C-2.2471041 163.54489565 -3.89779936 162.5570136 -6.75146484 159.61816406 C-7.65385232 156.91100164 -7.86997787 155.38039638 -7.84912109 152.60644531 C-7.84662354 151.92364502 -7.84412598 151.24084473 -7.84155273 150.53735352 C-7.83244873 149.677146 -7.82334473 148.81693848 -7.81396484 147.93066406 C-7.79333984 145.18753906 -7.77271484 142.44441406 -7.75146484 139.61816406 C-23.09646484 140.11316406 -23.09646484 140.11316406 -38.75146484 140.61816406 C-31.88126942 147.60655627 -31.88126942 147.60655627 -24.62646484 153.93066406 C-23.70349609 154.66929687 -22.78052734 155.40792969 -21.82958984 156.16894531 C-20.81380859 156.9771875 -19.79802734 157.78542969 -18.75146484 158.61816406 C-17.55777936 159.58962086 -16.36511927 160.5623386 -15.17333984 161.53613281 C-9.11015075 166.47269458 -2.98897851 171.32114649 3.37353516 175.86816406 C4.38673828 176.59519531 5.39994141 177.32222656 6.44384766 178.07128906 C9.53017585 179.77349793 10.7999912 179.97004966 14.24853516 179.61816406 C16.42086061 178.54342601 16.42086061 178.54342601 18.43603516 176.94238281 C19.21100342 176.36689697 19.98597168 175.79141113 20.78442383 175.19848633 C21.59758057 174.57385498 22.4107373 173.94922363 23.24853516 173.30566406 C24.0906958 172.67136475 24.93285645 172.03706543 25.80053711 171.38354492 C32.83536383 166.04120726 39.61195686 160.4442407 46.24853516 154.61816406 C46.98072266 153.98523438 47.71291016 153.35230469 48.46728516 152.70019531 C50.40616885 151.01906005 52.32925188 149.32162432 54.24853516 147.61816406 C55.01423828 146.94527344 55.77994141 146.27238281 56.56884766 145.57910156 C66.66939651 136.61842656 75.91134825 127.24626494 84.24853516 116.61816406 C85.06193359 115.62171875 85.87533203 114.62527344 86.71337891 113.59863281 C93.26517048 105.4784587 98.45115742 96.87202703 103.24853516 87.61816406 C103.75384766 86.65007812 104.25916016 85.68199219 104.77978516 84.68457031 C112.33381319 69.1849945 115.8224055 50.3119646 110.37353516 33.55566406 C109.40010126 31.10044747 108.34740963 28.80183596 107.09619141 26.47753906 C105.9200892 23.89770196 106.45741826 22.27919362 107.24853516 19.61816406 C108.24853516 18.61816406 108.24853516 18.61816406 110.56103516 18.18066406 C113.24853516 18.61816406 113.24853516 18.61816406 115.31103516 20.86816406 C124.4509067 36.4728228 124.05188798 56.09226649 119.63134766 73.07519531 C108.96342218 109.99957223 77.85347484 142.6566891 48.24853516 165.61816406 C47.01478707 166.63633881 45.78459367 167.65882941 44.55712891 168.68457031 C20.13941839 189.0192804 20.13941839 189.0192804 12.18603516 189.99316406 C3.94330688 189.20814232 -2.77558626 183.34969449 -9.12646484 178.36816406 C-9.86396973 177.79606201 -10.60147461 177.22395996 -11.36132812 176.63452148 C-13.4982787 174.97096969 -15.62682479 173.2973989 -17.75146484 171.61816406 C-18.30189453 171.18391113 -18.85232422 170.7496582 -19.41943359 170.30224609 C-25.56251673 165.43091015 -31.40892286 160.28114849 -37.17724609 154.97363281 C-40.03863307 152.35539859 -42.95487811 149.80951261 -45.89990234 147.28613281 C-47.75146484 145.61816406 -47.75146484 145.61816406 -49.83081055 143.05810547 C-53.73582489 139.79582064 -56.39800547 139.88636068 -61.33349609 139.91113281 C-62.55476448 139.88845085 -62.55476448 139.88845085 -63.80070496 139.86531067 C-66.3887412 139.8224897 -68.9756099 139.81360159 -71.56396484 139.80566406 C-73.32376139 139.78251523 -75.08353025 139.75714908 -76.84326172 139.72949219 C-81.14609904 139.66669574 -85.44820985 139.63431671 -89.75146484 139.61816406 C-89.69925781 141.37193359 -89.69925781 141.37193359 -89.64599609 143.16113281 C-89.61784768 144.70929547 -89.59054865 146.25747374 -89.56396484 147.80566406 C-89.53882813 148.57458984 -89.51369141 149.34351563 -89.48779297 150.13574219 C-89.4276572 154.8062868 -89.69722281 157.83773861 -92.75146484 161.61816406 C-96.49409772 164.11325265 -98.66015176 163.94929065 -103.12646484 163.99316406 C-104.43357422 164.02152344 -105.74068359 164.04988281 -107.08740234 164.07910156 C-111.29739228 163.54948662 -112.91112344 162.73509301 -115.75146484 159.61816406 C-116.56396484 156.86816406 -116.56396484 156.86816406 -116.75146484 154.61816406 C-117.55970703 154.66457031 -118.36794922 154.71097656 -119.20068359 154.75878906 C-120.26931641 154.79488281 -121.33794922 154.83097656 -122.43896484 154.86816406 C-123.49470703 154.91457031 -124.55044922 154.96097656 -125.63818359 155.00878906 C-129.77018237 154.49034505 -131.00714459 153.79384475 -133.75146484 150.61816406 C-134.52579083 146.6798136 -134.45150334 142.77723552 -134.41552734 138.77441406 C-134.42031097 137.61317017 -134.4250946 136.45192627 -134.43002319 135.25549316 C-134.43342475 132.80101161 -134.42420468 130.34648491 -134.40332031 127.89208984 C-134.37656178 124.13178636 -134.40306309 120.37446827 -134.43505859 116.61425781 C-134.43175455 114.23013663 -134.42534842 111.84601731 -134.41552734 109.46191406 C-134.4256485 108.33579712 -134.43576965 107.20968018 -134.44619751 106.04943848 C-134.32944602 98.28699405 -134.32944602 98.28699405 -131.40454102 94.90234375 C-128.18904672 93.34593444 -125.99561616 93.21182774 -122.43896484 93.36816406 C-121.37033203 93.40425781 -120.30169922 93.44035156 -119.20068359 93.47753906 C-118.39244141 93.52394531 -117.58419922 93.57035156 -116.75146484 93.61816406 C-116.68958984 92.87566406 -116.62771484 92.13316406 -116.56396484 91.36816406 C-115.45926894 87.6291933 -114.09182102 86.58650817 -110.75146484 84.61816406 C-107.12255859 84.12207031 -107.12255859 84.12207031 -103.18896484 84.18066406 C-101.23796875 84.18259766 -101.23796875 84.18259766 -99.24755859 84.18457031 C-95.699276 84.62463665 -94.28843856 85.1844768 -91.75146484 87.61816406 C-92.16396484 86.46316406 -92.57646484 85.30816406 -93.00146484 84.11816406 C-93.59368011 82.28768053 -94.17569367 80.45388638 -94.75146484 78.61816406 C-95.11111328 77.51214844 -95.47076172 76.40613281 -95.84130859 75.26660156 C-101.37468966 56.24437341 -100.4109839 37.60565052 -91.50146484 19.86816406 C-82.73073413 4.47312618 -69.14440443 -4.94965033 -52.34130859 -10.12402344 C-34.91937391 -14.37043823 -14.21177449 -11.2125235 0 0 Z M-90.75146484 88.61816406 C-90.42146484 95.21816406 -90.09146484 101.81816406 -89.75146484 108.61816406 C-86.12146484 108.61816406 -82.49146484 108.61816406 -78.75146484 108.61816406 C-82.38713047 101.93403654 -86.04370721 95.26259699 -89.75146484 88.61816406 C-90.08146484 88.61816406 -90.41146484 88.61816406 -90.75146484 88.61816406 Z M-107.75146484 92.61816406 C-107.84234375 94.31585938 -107.84234375 94.31585938 -107.93505859 96.04785156 C-108.01946401 97.52963552 -108.10411201 99.01140566 -108.18896484 100.49316406 C-108.22828125 101.23953125 -108.26759766 101.98589844 -108.30810547 102.75488281 C-108.63818359 108.39160156 -108.63818359 108.39160156 -109.75146484 110.61816406 C-111.4175839 110.66088506 -113.08529369 110.65880238 -114.75146484 110.61816406 C-116.79844898 108.57117992 -116.45192178 104.31405165 -116.75146484 101.61816406 C-118.23053376 101.5912719 -119.70973967 101.57181785 -121.18896484 101.55566406 C-122.01267578 101.5440625 -122.83638672 101.53246094 -123.68505859 101.52050781 C-125.74310422 101.38549058 -125.74310422 101.38549058 -126.75146484 102.61816406 C-126.84931826 103.96360733 -126.87944469 105.31408969 -126.88085938 106.66308594 C-126.88401154 107.52067505 -126.8871637 108.37826416 -126.89041138 109.26184082 C-126.88838715 110.19411499 -126.88636292 111.12638916 -126.88427734 112.08691406 C-126.88523407 113.03755737 -126.8861908 113.98820068 -126.88717651 114.96765137 C-126.88785841 116.98185288 -126.88600346 118.99605658 -126.88183594 121.01025391 C-126.87648782 124.10486761 -126.88178061 127.19933616 -126.88818359 130.29394531 C-126.88752281 132.24576855 -126.88624165 134.1975917 -126.88427734 136.14941406 C-126.88630157 137.08168823 -126.88832581 138.0139624 -126.89041138 138.9744873 C-126.88725922 139.83207642 -126.88410706 140.68966553 -126.88085938 141.57324219 C-126.88006378 142.33189575 -126.87926819 143.09054932 -126.87844849 143.87219238 C-126.94067572 145.64693718 -126.94067572 145.64693718 -125.75146484 146.61816406 C-124.23218447 146.6899637 -122.70979003 146.70208414 -121.18896484 146.68066406 C-120.36267578 146.67164063 -119.53638672 146.66261719 -118.68505859 146.65332031 C-118.04697266 146.64171875 -117.40888672 146.63011719 -116.75146484 146.61816406 C-116.72640869 145.89636963 -116.70135254 145.1745752 -116.67553711 144.4309082 C-116.55995183 141.18062907 -116.4370571 137.93066718 -116.31396484 134.68066406 C-116.27464844 133.54435547 -116.23533203 132.40804687 -116.19482422 131.23730469 C-116.15292969 130.15771484 -116.11103516 129.078125 -116.06787109 127.96582031 C-116.03121338 126.96558838 -115.99455566 125.96535645 -115.95678711 124.93481445 C-115.75146484 122.61816406 -115.75146484 122.61816406 -114.75146484 121.61816406 C-113.08529369 121.57752574 -111.4175839 121.57544306 -109.75146484 121.61816406 C-108.27940471 124.56228433 -108.51339292 127.58102321 -108.43505859 130.81347656 C-108.4142775 131.5209201 -108.3934964 132.22836365 -108.37208557 132.95724487 C-108.30665406 135.21911831 -108.24773511 137.48110868 -108.18896484 139.74316406 C-108.14577352 141.27572828 -108.10215902 142.80828064 -108.05810547 144.34082031 C-107.95097929 148.09981479 -107.84969394 151.85892699 -107.75146484 155.61816406 C-104.78146484 155.61816406 -101.81146484 155.61816406 -98.75146484 155.61816406 C-98.75146484 134.82816406 -98.75146484 114.03816406 -98.75146484 92.61816406 C-101.72146484 92.61816406 -104.69146484 92.61816406 -107.75146484 92.61816406 Z M1.24853516 92.61816406 C1.24853516 113.40816406 1.24853516 134.19816406 1.24853516 155.61816406 C4.21853516 155.61816406 7.18853516 155.61816406 10.24853516 155.61816406 C10.24853516 134.82816406 10.24853516 114.03816406 10.24853516 92.61816406 C7.27853516 92.61816406 4.30853516 92.61816406 1.24853516 92.61816406 Z M19.24853516 102.61816406 C19.15068174 103.96360733 19.12055531 105.31408969 19.11914062 106.66308594 C19.11598846 107.52067505 19.1128363 108.37826416 19.10958862 109.26184082 C19.11161285 110.19411499 19.11363708 111.12638916 19.11572266 112.08691406 C19.11476593 113.03755737 19.1138092 113.98820068 19.11282349 114.96765137 C19.11214159 116.98185288 19.11399654 118.99605658 19.11816406 121.01025391 C19.12351218 124.10486761 19.11821939 127.19933616 19.11181641 130.29394531 C19.11247719 132.24576855 19.11375835 134.1975917 19.11572266 136.14941406 C19.11369843 137.08168823 19.11167419 138.0139624 19.10958862 138.9744873 C19.11274078 139.83207642 19.11589294 140.68966553 19.11914062 141.57324219 C19.11993622 142.33189575 19.12073181 143.09054932 19.12155151 143.87219238 C19.05932428 145.64693718 19.05932428 145.64693718 20.24853516 146.61816406 C22.12175463 146.77870221 22.12175463 146.77870221 24.24853516 146.74316406 C24.97041016 146.74574219 25.69228516 146.74832031 26.43603516 146.75097656 C28.2694293 146.81511682 28.2694293 146.81511682 29.24853516 145.61816406 C29.34638857 144.27272079 29.37651501 142.92223844 29.37792969 141.57324219 C29.38108185 140.71565308 29.38423401 139.85806396 29.38748169 138.9744873 C29.38545746 138.04221313 29.38343323 137.10993896 29.38134766 136.14941406 C29.38230438 135.19877075 29.38326111 134.24812744 29.38424683 133.26867676 C29.38492872 131.25447524 29.38307378 129.24027154 29.37890625 127.22607422 C29.37355814 124.13146052 29.37885093 121.03699197 29.38525391 117.94238281 C29.38459313 115.99055957 29.38331197 114.03873643 29.38134766 112.08691406 C29.384384 110.68850281 29.384384 110.68850281 29.38748169 109.26184082 C29.38275345 107.97545715 29.38275345 107.97545715 29.37792969 106.66308594 C29.37713409 105.90443237 29.3763385 105.14577881 29.3755188 104.36413574 C29.43774603 102.58939095 29.43774603 102.58939095 28.24853516 101.61816406 C26.37531568 101.45762591 26.37531568 101.45762591 24.24853516 101.49316406 C23.52666016 101.49058594 22.80478516 101.48800781 22.06103516 101.48535156 C20.22764101 101.4212113 20.22764101 101.4212113 19.24853516 102.61816406 Z " fill="#000000" transform="translate(133.75146484375,39.3818359375)"/>
<path d="M0 0 C2.4375 0 2.4375 0 5 1 C7.38423687 5.12045039 8.84063518 9.32352578 10.1875 13.875 C10.53167969 15.02742188 10.87585938 16.17984375 11.23046875 17.3671875 C11.48441406 18.23601562 11.73835938 19.10484375 12 20 C13.05501709 20.02505615 14.11003418 20.0501123 15.19702148 20.07592773 C19.09770628 20.16984109 22.99820625 20.27010034 26.89868164 20.37231445 C28.58939299 20.41572439 30.28014991 20.45739489 31.97094727 20.49731445 C34.39613606 20.55487094 36.82109415 20.61860649 39.24609375 20.68359375 C40.38672523 20.70866249 40.38672523 20.70866249 41.55039978 20.73423767 C46.88612829 20.88612829 46.88612829 20.88612829 48 22 C48.125 25 48.125 25 48 28 C45.01763475 30.98236525 33.81632584 29.32376797 29.57226562 29.35009766 C27.61088201 29.36666998 25.6495591 29.39397682 23.68847656 29.43212891 C20.86751839 29.48676181 18.04797769 29.50874967 15.2265625 29.5234375 C14.34835846 29.54610687 13.47015442 29.56877625 12.56533813 29.59213257 C10.26953275 29.58412773 8.23313507 29.53281277 6 29 C3.47419763 26.14755965 3 24.79783471 3 21 C2.34 21 1.68 21 1 21 C0.90783203 21.54785156 0.81566406 22.09570312 0.72070312 22.66015625 C-0.61263502 29.94907144 -2.67514187 36.97230558 -4.88623047 44.03466797 C-5.50683935 46.02190007 -6.11509676 48.01265072 -6.72265625 50.00390625 C-7.11324219 51.26074219 -7.50382812 52.51757812 -7.90625 53.8125 C-8.26009766 54.95332031 -8.61394531 56.09414062 -8.97851562 57.26953125 C-10 60 -10 60 -12 62 C-14.4375 62 -14.4375 62 -17 61 C-19.41602813 56.82855519 -20.88260735 52.56114162 -22.26171875 47.95703125 C-22.45723831 47.30675461 -22.65275787 46.65647797 -22.85420227 45.98649597 C-23.26264134 44.62338394 -23.66838555 43.25946174 -24.0715332 41.89477539 C-24.68946813 39.80584675 -25.31773448 37.72022527 -25.94726562 35.63476562 C-29 25.4110703 -29 25.4110703 -29 22 C-30.62010986 22.01571045 -30.62010986 22.01571045 -32.27294922 22.03173828 C-36.27226459 22.06788194 -40.27156546 22.09087984 -44.27099609 22.10986328 C-46.00344265 22.11993376 -47.73587216 22.13359089 -49.46826172 22.15087891 C-51.95544639 22.17508162 -54.44240675 22.18647239 -56.9296875 22.1953125 C-57.70682098 22.20563507 -58.48395447 22.21595764 -59.28463745 22.22659302 C-61.19125493 22.22699271 -63.09731036 22.1223214 -65 22 C-67 20 -67 20 -67.25 17.5 C-67 15 -67 15 -65 13 C-61.95022945 12.76302012 -58.99442959 12.64757301 -55.94140625 12.62890625 C-55.04131332 12.61987778 -54.1412204 12.6108493 -53.21385193 12.60154724 C-51.30821062 12.58702573 -49.40251924 12.5781533 -47.49682617 12.57446289 C-44.57711081 12.56255957 -41.65950374 12.51338849 -38.74023438 12.46289062 C-36.89063534 12.45342758 -35.0410233 12.44619198 -33.19140625 12.44140625 C-31.87880577 12.41210777 -31.87880577 12.41210777 -30.53968811 12.38221741 C-28.25435212 12.39927732 -26.22205888 12.46604386 -24 13 C-22.02587891 15.23754883 -22.02587891 15.23754883 -21 18 C-20.70585205 18.77746582 -20.4117041 19.55493164 -20.10864258 20.35595703 C-19.87298584 21.14856934 -19.6373291 21.94118164 -19.39453125 22.7578125 C-19.13349609 23.63050781 -18.87246094 24.50320312 -18.60351562 25.40234375 C-18.34248047 26.30082031 -18.08144531 27.19929688 -17.8125 28.125 C-17.53986328 29.03121094 -17.26722656 29.93742187 -16.98632812 30.87109375 C-15 37.59175282 -15 37.59175282 -15 41 C-14.34 41 -13.68 41 -13 41 C-12.88068115 40.00202393 -12.7613623 39.00404785 -12.63842773 37.97583008 C-12.06697058 33.99535911 -10.99231852 30.21580615 -9.78515625 26.38671875 C-9.46145302 25.34328056 -9.46145302 25.34328056 -9.13121033 24.27876282 C-8.67747823 22.82164086 -8.2210259 21.36536337 -7.76196289 19.90991211 C-7.05979054 17.67889119 -6.37025363 15.44422269 -5.68164062 13.20898438 C-5.23773088 11.78882731 -4.79309519 10.36889692 -4.34765625 8.94921875 C-4.14237808 8.28153976 -3.93709991 7.61386078 -3.7256012 6.9259491 C-2.80094758 4.02311535 -2.18696853 2.18696853 0 0 Z " fill="#000000" transform="translate(123,70)"/>
</svg>
