<svg xmlns="http://www.w3.org/2000/svg" width="256" height="256"><path d="M133.7514648 39.381836c2.7410638 2.3547912 5.3516836 4.8198035 7.9204102 7.3603515C143.784075 49.0177237 143.784075 49.0177237 146 50l1.8125-2.5C157.2758159 36.2239927 171.7221405 30.0835338 186 28c18.5829295-1.430964 34.5814301 3.3164001 49 15 1.8320313 1.5820312 1.8320313 1.5820312 3 3-.4210526 4.4210526-.4210526 4.4210526-2 6-3.2453511.4233067-4.681594.2027134-7.4726562-1.5742188L225.9375 48.3125c-11.6486754-8.7870515-25.093466-12.6091344-39.6875-10.6875-13.2124029 2.584333-23.2611591 7.8972122-32.5 17.8125-2.6100416 2.700594-3.7021143 3.5459877-7.375 4.8125-4.3096283-.3192317-6.089815-1.4647345-9.375-4.25l-2.1875-2.8125c-7.2745222-9.2097317-19.9479648-13.7397835-31.125-15.5625-14.794909-1.6687108-28.366363 2.0942808-40.1171875 11.1835937-11.6777097 9.9562237-18.4825905 22.9998554-19.8515625 38.34375-.5825788 20.0261475 7.9805192 41.272521 20.0507813 57.1796875C65 146 65 146 65 148l3.2888184-.0158691c4.0123614-.0180493 8.0247193-.0295626 12.0371093-.0390625 1.739264-.0050404 3.4785237-.0118727 5.2177735-.0205079 2.4945582-.0120784 4.9890605-.0177916 7.4836426-.0222168l2.3705902-.0156402C97.265671 147.8865077 99.133292 147.938003 101 148c1 1 1 1 1.1875 3.4375C102 154 102 154 100 156c-2.3664856.240509-2.3664856.240509-5.3676758.2270508l-3.3970032-.0004578-3.6806335-.0312805-3.7580261-.0085754c-3.2979077-.0093154-6.5956211-.0272882-9.8934632-.049408-3.3648439-.0204544-6.7297163-.0295929-10.0946044-.0396729C57.2056429 156.0755652 50.6028593 156.0410194 44 156v15h82v-15l-6.375.125c-3.5859375.0703125-3.5859375.0703125-6.625-.125-2-2-2-2-2.1875-4.5625C111 149 111 149 112 148c2.3531355-.0727174 4.7083367-.0837087 7.0625-.0625l3.9101563.0273437L126 148l-.1054687-3.5429688c-.0281485-1.5481626-.0554475-3.0963409-.0820313-4.6445312l-.0761719-2.3300781C125.6761924 132.8118773 125.945758 129.7804254 129 126c3.7426329-2.4950886 5.908687-2.3311266 10.375-2.375l3.9609375-.0859375c4.20999.529615 5.8237211 1.3440085 8.6640625 4.4609375.8125 2.75.8125 2.75 1 5l2.484375-.0703125L158.75 132.875l3.234375-.0703125c3.0129627.19514 4.5793023.4503786 7.015625 2.1953125 1.8725177 3.0380933 2.2521572 5.3479232 2.258789 8.8886719l.019104 2.9327392-.012268 3.1473389.0057983 3.249878c.0013603 2.2661563-.0023249 4.5323205-.0106811 6.7984618-.0107016 3.4697418-.000099 6.9389658.0126953 10.4086914-.0013216 2.2018241-.003884 4.4036478-.0078125 6.6054688.0040485 1.0386218.008097 2.0772436.012268 3.1473389l-.019104 2.9327392-.0048217 2.5743408C170.9750386 188.227466 170.3363368 189.8318412 169 192c-3.2868944 2.3541271-6.2988422 2.2108947-10.25 2.125l-3.265625-.0546875L153 194l-.1875 2.25c-1.1039755 3.7365326-2.4780225 4.7779972-5.8125 6.75-3.59375.53125-3.59375.53125-7.5.5l-3.90625.03125c-4.0893893-.6045184-5.7400845-1.5924005-8.59375-4.53125-.9023875-2.7071624-1.118513-4.2377677-1.0976562-7.0117188l.0075683-2.0690917.0275879-2.6066895L126 179l-31 1c6.8701954 6.9883922 6.8701954 6.9883922 14.125 13.3125l2.796875 2.2382812L115 198c1.1936855.9714568 2.3863456 1.9441745 3.578125 2.9179687 6.063189 4.9365618 12.1843613 9.7850137 18.546875 14.3320313l3.0703125 2.203125C143.2816407 219.1553339 144.551456 219.3518856 148 219c2.1723255-1.074738 2.1723255-1.074738 4.1875-2.6757813l2.3483887-1.7438964L157 212.6875l2.552002-1.9221191C166.5868287 205.4230432 173.3634217 199.8260766 180 194l2.21875-1.9179688C184.1576337 190.400896 186.0807167 188.7034602 188 187l2.3203125-2.0390625C200.4208614 176.0002625 209.6628131 166.6281009 218 156l2.4648438-3.0195313C227.0166353 144.8602947 232.2026223 136.253863 237 127l1.53125-2.9335938c7.554028-15.4995758 11.0426203-34.3726057 5.59375-51.1289062-.9734339-2.4552166-2.0261255-4.7538281-3.2773437-7.078125C239.671554 63.2795379 240.208883 61.6610296 241 59c1-1 1-1 3.3125-1.4375C247 58 247 58 249.0625 60.25c9.1398715 15.6046587 8.7408528 35.2241024 4.3203125 52.2070312C242.714887 149.3814082 211.6049397 182.038525 182 205c-1.233748 1.0181747-2.4639415 2.0406653-3.6914062 3.0664062C153.8908832 228.4011163 153.8908832 228.4011163 145.9375 229.375c-8.2427283-.7850217-14.9616214-6.6434696-21.3125-11.625l-2.2348633-1.7336426C120.2531861 214.3528056 118.1246401 212.6792348 116 211l-1.6679687-1.315918c-6.1430832-4.871336-11.9894893-10.0210976-17.7578125-15.3286133-2.861387-2.6182342-5.777632-5.1641202-8.7226563-7.6875C86 185 86 185 83.9206543 182.4399414c-3.9050143-3.2622848-6.567195-3.1717448-11.5026855-3.1469727-1.2212684-.022682-1.2212684-.022682-2.467209-.045822-2.5880362-.042821-5.1749049-.0517092-7.7632598-.0596467-1.7597965-.0231488-3.5195654-.048515-5.2792969-.0761719C52.6053658 179.0485317 48.303255 179.0161526 44 179l.1054688 3.5429687c.0281484 1.5481627.0554474 3.096341.0820312 4.6445313l.0761719 2.3300781C44.3238076 194.1881227 44.054242 197.2195745 41 201c-3.7426329 2.4950886-5.908687 2.3311266-10.375 2.375l-3.9609375.0859375C22.4540725 202.9313225 20.8403414 202.1169289 18 199c-.8125-2.75-.8125-2.75-1-5l-2.4492187.140625L11.3125 194.25l-3.1992187.140625C3.9812825 193.872181 2.7443203 193.1756807 0 190c-.774326-3.9383505-.7000385-7.8409285-.6640625-11.84375l-.0144958-3.5189209c-.0034016-2.4544816.0058185-4.9090083.0267028-7.3634033.0267586-3.7603035.0002573-7.5176216-.0317382-11.277832.003304-2.3841212.0097101-4.7682406.0195312-7.1523438l-.0306702-3.4124756c.1167515-7.7624444.1167515-7.7624444 3.0416565-11.1470947 3.2154943-1.5564093 5.4089249-1.690516 8.9655762-1.5341797l3.2382813.109375L17 133l.1875-2.25c1.1046959-3.7389708 2.4721438-4.7816559 5.8125-6.75 3.6289063-.4960938 3.6289063-.4960938 7.5625-.4375l3.9414063.0039062C38.0521888 124.0064726 39.4630263 124.5663127 42 127l-1.25-3.5c-.5922153-1.8304835-1.1742288-3.6642777-1.75-5.5l-1.0898437-3.3515625C32.3767752 95.6262093 33.3404809 76.9874865 42.25 59.25c8.7707307-15.3950379 22.3570604-24.8178144 39.1601563-29.9921875 17.4219346-4.2464148 38.129534-1.0885 52.3413085 10.1240234ZM43 128l1 20h11c-3.6356656-6.6841275-7.2922424-13.355567-11-20h-1Zm-17 4c-.090879 1.6976953-.090879 1.6976953-.1835937 3.4296875-.0844055 1.481784-.1690535 2.9635541-.2539063 4.4453125l-.1191406 2.2617187C25.1132813 147.7734375 25.1132813 147.7734375 24 150c-1.666119.042721-3.3338288.0406383-5 0-2.0469841-2.0469841-1.700457-6.3041124-2-9-1.479069-.0268922-2.9582748-.0463462-4.4375-.0625l-2.4960937-.0351563C8.0083606 140.7673265 8.0083606 140.7673265 7 142c-.0978534 1.3454433-.1279798 2.6959256-.1293945 4.0449219l-.009552 2.5987549.006134 2.8250732-.0028992 2.8807373c-.0006819 2.0142015.001173 4.0284052.0053406 6.0426025.0053481 3.0946137.0000553 6.1890823-.0063476 9.2836914.0006607 1.9518233.0019419 3.9036464.0039062 5.8554688l-.006134 2.8250732.009552 2.598755.0024109 2.2989501C6.810789 185.0287731 6.810789 185.0287731 8 186c1.5192804.0717996 3.0416748.08392 4.5625.0625l2.5039063-.0273438L17 186l.0759277-2.1872559c.1155853-3.250279.23848-6.500241.3615723-9.7502441l.1191406-3.4433594c.0418946-1.0795898.083789-2.1591797.1269532-3.2714844l.111084-3.0310058C18 162 18 162 19 161c1.6661712-.0406383 3.333881-.042721 5 0 1.4720601 2.9441203 1.238072 5.9628591 1.3164063 9.1953125l.062973 2.1437683c.0654315 2.2618734.1243504 4.5238638.1831207 6.7859192.0431913 1.5325642.0868058 3.0651166.1308594 4.5976562C25.8004856 187.4816507 25.9017709 191.240763 26 195h9v-63h-9Zm109 0v63h9v-63h-9Zm18 10c-.0978534 1.3454433-.1279798 2.6959256-.1293945 4.0449219l-.009552 2.5987549.006134 2.8250732-.0028992 2.8807373c-.0006819 2.0142015.001173 4.0284052.0053406 6.0426025.0053481 3.0946137.0000553 6.1890823-.0063476 9.2836914.0006607 1.9518233.0019419 3.9036464.0039062 5.8554688l-.006134 2.8250732.009552 2.598755.0024109 2.2989501C152.810789 185.0287731 152.810789 185.0287731 154 186c1.8732195.1605381 1.8732195.1605381 4 .125l2.1875.0078125c1.8333941.0641403 1.8333941.0641403 2.8125-1.1328125.0978534-1.3454433.1279799-2.6959256.1293945-4.0449219l.009552-2.5987549-.006134-2.8250732.0028992-2.8807373c.0006819-2.0142015-.001173-4.0284052-.0053406-6.0426025-.0053481-3.0946137-.0000553-6.1890823.0063477-9.2836915-.0006608-1.9518232-.001942-3.9036463-.0039063-5.8554687l.006134-2.8250732-.009552-2.598755-.0024109-2.2989501C163.189211 141.9712269 163.189211 141.9712269 162 141c-1.8732195-.1605382-1.8732195-.1605382-4-.125l-2.1875-.0078125c-1.8333941-.0641403-1.8333941-.0641403-2.8125 1.1328125Z"/><path d="M123 70c2.4375 0 2.4375 0 5 1 2.3842369 4.1204504 3.8406352 8.3235258 5.1875 12.875l1.0429688 3.4921875L135 90l3.1970215.0759277c3.9006848.0939134 7.8011848.1941726 11.7016601.2963868 1.6907114.0434099 3.3814683.0850804 5.0722657.125 2.4251888.0575564 4.8501468.121292 7.2751464.1862792l2.304306.050644C169.8861284 90.8861283 169.8861284 90.8861283 171 92c.125 3 .125 3 0 6-2.9823652 2.9823653-14.1836742 1.323768-18.4277344 1.3500977-1.9613836.0165723-3.9227065.0438791-5.883789.0820312-2.8209582.054633-5.640499.0766208-8.4619141.0913086l-2.6612244.068695C133.2695328 99.5841278 131.2331351 99.5328129 129 99c-2.5258024-2.8524403-3-4.2021653-3-8h-2l-.2792969 1.6601563c-1.3333381 7.2889151-3.395845 14.3121493-5.6069336 21.3745117-.6206089 1.987232-1.2288663 3.9779827-1.8364258 5.9692383L115.09375 123.8125l-1.0722656 3.4570313C113 130 113 130 111 132c-2.4375 0-2.4375 0-5-1-2.4160281-4.1714448-3.8826074-8.4388584-5.2617188-13.0429688l-.5924835-1.9705352c-.408439-1.363112-.8141832-2.7270343-1.2173309-4.0917206-.617935-2.0889286-1.2462013-4.1745501-1.8757324-6.2600098C94 95.4110703 94 95.4110703 94 92l-3.2729492.0317383c-3.9993154.0361436-7.9986163.0591415-11.9980469.078125-1.7324465.0100705-3.464876.0237276-5.1972656.0410156-2.4871847.0242027-4.974145.0355935-7.4614258.0444336l-2.35495.0312805C61.8087452 92.2269927 59.9026896 92.1223214 58 92c-2-2-2-2-2.25-4.5C56 85 56 85 58 83c3.0497705-.2369799 6.0055704-.352427 9.0585938-.3710938l2.7275543-.027359c1.9056413-.0145215 3.8113327-.0233939 5.7170257-.0270843 2.9197154-.0119033 5.8373225-.0610744 8.7565918-.1115723 1.849599-.009463 3.6992111-.0166986 5.5488282-.0214843l2.651718-.0591889C94.7456479 82.3992774 96.7779412 82.466044 99 83c1.974121 2.2375488 1.974121 2.2375488 3 5l.8913574 2.355957.7141113 2.4018555.7910157 2.6445313L105.1875 98.125l.8261719 2.7460938C108 107.5917527 108 107.5917527 108 111h2l.3615723-3.02417c.5714571-3.9804709 1.6461092-7.7600239 2.8532714-11.5891113l.653946-2.1079559c.453732-1.457122.9101844-2.9133994 1.3692474-4.3688507.7021724-2.231021 1.3917093-4.4656894 2.0803223-6.7009277.4439097-1.420157.8885454-2.8400875 1.3339843-4.2597657l.6220551-2.0232696C120.1990524 74.0231154 120.8130315 72.1869685 123 70Z"/></svg>